<svg id="Ñëîé_1" data-name="Ñëîé 1" xmlns="http://www.w3.org/2000/svg" xmlns:xlink="http://www.w3.org/1999/xlink" viewBox="0 0 310.64 296.79"><defs><style>.cls-1{fill:url(#Áåçûìÿííûé_ãðàäèåíò_33);}.cls-2{fill:url(#Áåçûìÿííûé_ãðàäèåíò_33-2);}.cls-3{fill:#000028;opacity:0.3;}.cls-4{fill:url(#Áåçûìÿííûé_ãðàäèåíò_33-3);}.cls-5{fill:url(#Áåçûìÿííûé_ãðàäèåíò_113);}.cls-6{fill:url(#Áåçûìÿííûé_ãðàäèåíò_109);}.cls-7{fill:url(#Áåçûìÿííûé_ãðàäèåíò_343);}.cls-8{fill:#fff;}.cls-13,.cls-9{opacity:0.4;}.cls-10,.cls-13,.cls-14{fill:#06033e;}.cls-11{fill:url(#Áåçûìÿííûé_ãðàäèåíò_343-2);}.cls-12{fill:url(#Áåçûìÿííûé_ãðàäèåíò_441);}.cls-14,.cls-16{opacity:0.5;}.cls-15{fill:url(#Áåçûìÿííûé_ãðàäèåíò_343-3);}.cls-17{fill:#e8975b;}.cls-18{fill:#f8359e;}</style><linearGradient id="Áåçûìÿííûé_ãðàäèåíò_33" x1="250.57" y1="286.84" x2="282.62" y2="286.84" gradientUnits="userSpaceOnUse"><stop offset="0" stop-color="#e39a65"/><stop offset="1" stop-color="#e95f8d"/></linearGradient><linearGradient id="Áåçûìÿííûé_ãðàäèåíò_33-2" x1="39.52" y1="115.99" x2="93.73" y2="115.99" xlink:href="#Áåçûìÿííûé_ãðàäèåíò_33"/><linearGradient id="Áåçûìÿííûé_ãðàäèåíò_33-3" x1="2.73" y1="213.88" x2="294.53" y2="213.88" xlink:href="#Áåçûìÿííûé_ãðàäèåíò_33"/><radialGradient id="Áåçûìÿííûé_ãðàäèåíò_113" cx="163.93" cy="-2.58" r="223.3" gradientUnits="userSpaceOnUse"><stop offset="0" stop-color="#e39a65"/><stop offset="0.47" stop-color="#a92ffb"/><stop offset="0.59" stop-color="#891cfb"/><stop offset="0.74" stop-color="#6507fa"/><stop offset="0.8" stop-color="#0d0c6f"/></radialGradient><radialGradient id="Áåçûìÿííûé_ãðàäèåíò_109" cx="27.36" cy="176.75" r="244.17" gradientUnits="userSpaceOnUse"><stop offset="0" stop-color="#e39a65"/><stop offset="0.47" stop-color="#a92ffb"/><stop offset="0.57" stop-color="#891cfb"/><stop offset="0.68" stop-color="#6507fa"/><stop offset="0.74" stop-color="#0d0c6f"/></radialGradient><radialGradient id="Áåçûìÿííûé_ãðàäèåíò_343" cx="49.82" cy="127.74" r="218.96" gradientUnits="userSpaceOnUse"><stop offset="0" stop-color="#e39a65"/><stop offset="0.47" stop-color="#a92ffb"/><stop offset="0.59" stop-color="#891cfb"/><stop offset="0.73" stop-color="#6507fa"/><stop offset="1" stop-color="#3919bb"/></radialGradient><radialGradient id="Áåçûìÿííûé_ãðàäèåíò_343-2" cx="104.37" cy="44" r="223.34" xlink:href="#Áåçûìÿííûé_ãðàäèåíò_343"/><linearGradient id="Áåçûìÿííûé_ãðàäèåíò_441" x1="128.91" y1="102.63" x2="307.88" y2="102.63" gradientUnits="userSpaceOnUse"><stop offset="0" stop-color="#3919bb"/><stop offset="1" stop-color="#6507fa"/></linearGradient><radialGradient id="Áåçûìÿííûé_ãðàäèåíò_343-3" cx="22.83" cy="-3.69" r="347.85" xlink:href="#Áåçûìÿííûé_ãðàäèåíò_343"/></defs><path class="cls-1" d="M266.6,296.15a6.62,6.62,0,0,1-3.34-.9h0l-11.74-6.77a1.9,1.9,0,0,1-1-1.64,1.87,1.87,0,0,1,1-1.64l11.74-6.78a6.7,6.7,0,0,1,6.68,0l11.74,6.78a1.87,1.87,0,0,1,.94,1.64,1.89,1.89,0,0,1-.94,1.64l-11.74,6.77A6.65,6.65,0,0,1,266.6,296.15Zm-2.69-2a5.41,5.41,0,0,0,5.38,0L281,287.35a.58.58,0,0,0,.29-.51.6.6,0,0,0-.29-.52l-11.74-6.77a5.39,5.39,0,0,0-5.38,0l-11.74,6.77a.59.59,0,0,0-.3.52.58.58,0,0,0,.3.51Z" transform="translate(-2.73 -2.08)"/><path class="cls-2" d="M66.63,131.54a11.05,11.05,0,0,1-5.52-1.47l-20.2-11.66a2.79,2.79,0,0,1,0-4.83l20.2-11.66a11,11,0,0,1,11,0l20.2,11.66a2.79,2.79,0,0,1,0,4.83l-20.2,11.66A11,11,0,0,1,66.63,131.54Zm0-29.8a9.78,9.78,0,0,0-4.86,1.3L41.56,114.7a1.49,1.49,0,0,0,0,2.58L61.76,129h0a9.77,9.77,0,0,0,9.73,0l20.2-11.67a1.46,1.46,0,0,0,.74-1.29,1.45,1.45,0,0,0-.74-1.28L71.49,103A9.79,9.79,0,0,0,66.62,101.74Z" transform="translate(-2.73 -2.08)"/><path class="cls-3" d="M170.61,284.1,26.18,200.71c-2.11-1.22-1.84-3.34.59-4.74l92.69-53.52c2.43-1.4,6.11-1.56,8.22-.34L272.11,225.5c2.1,1.21,1.84,3.33-.59,4.74l-92.7,53.52C176.39,285.16,172.71,285.31,170.61,284.1Z" transform="translate(-2.73 -2.08)"/><path class="cls-4" d="M173.92,298.87a9,9,0,0,1-4.41-1h0L4.67,202.67a3.41,3.41,0,0,1-1.94-2.91c0-1.34,1-2.66,2.62-3.62L117.71,130.3c3-1.73,7.41-1.9,10-.39l164.84,95.17a3.44,3.44,0,0,1,1.95,2.92c0,1.34-1,2.66-2.62,3.62L179.54,297.45A11.53,11.53,0,0,1,173.92,298.87Zm-3.76-2.15c2.22,1.28,6.14,1.1,8.73-.39L291.25,230.5c1.26-.73,2-1.64,2-2.5a2.23,2.23,0,0,0-1.3-1.79L127.09,131c-2.22-1.28-6.13-1.11-8.72.39L6,197.26c-1.25.72-2,1.64-2,2.5a2.22,2.22,0,0,0,1.29,1.79l164.84,95.17Z" transform="translate(-2.73 -2.08)"/><path class="cls-5" d="M310.48,85.7,166.61,2.64a3.7,3.7,0,0,0-2.93-.42h0L161,3.15l.94.22A4.65,4.65,0,0,0,161.06,5L128.53,110.65a6.37,6.37,0,0,0,2.63,7.11L275,200.81a4.12,4.12,0,0,0,1.05.44l-.35.77,2.54-.89h0a4.08,4.08,0,0,0,2.31-2.69L313.11,92.8A6.36,6.36,0,0,0,310.48,85.7Z" transform="translate(-2.73 -2.08)"/><path class="cls-6" d="M269.88,204.76l.05.06-142.1-82c-2.09-1.21-5.74-1.06-8.16.34l-91.81,53L24.8,175l.86,4.3h0A2.57,2.57,0,0,0,27,181l143.42,82.79c2.09,1.21,5.74,1.06,8.15-.33l92-53.14a3.66,3.66,0,0,0,2-2.28h0l.88-4.18Z" transform="translate(-2.73 -2.08)"/><path class="cls-7" d="M170.61,260,26.18,176.6c-2.11-1.22-1.84-3.34.59-4.74l92.69-53.52c2.43-1.4,6.11-1.56,8.22-.34l144.43,83.39c2.1,1.21,1.84,3.33-.59,4.74l-92.7,53.52C176.39,261.05,172.71,261.2,170.61,260Z" transform="translate(-2.73 -2.08)"/><path class="cls-8" d="M271.52,205l-92.7,53.52c-2.43,1.4-6.11,1.56-8.21.34L26.18,175.47A2.7,2.7,0,0,1,24.86,174a2.25,2.25,0,0,0,1.32,2.62L170.61,260c2.1,1.21,5.78,1.06,8.21-.34l92.7-53.52c1.6-.93,2.24-2.16,1.9-3.25A3.81,3.81,0,0,1,271.52,205Z" transform="translate(-2.73 -2.08)"/><g class="cls-9"><path class="cls-10" d="M95.07,163.07l-4.88-2.82c-.39-.22-.34-.62.11-.88l5.76-3.32a1.73,1.73,0,0,1,1.53-.07l4.87,2.82c.39.22.34.62-.11.88L96.6,163A1.73,1.73,0,0,1,95.07,163.07Z" transform="translate(-2.73 -2.08)"/><path class="cls-10" d="M102.6,167.41l-4.88-2.81c-.39-.23-.34-.62.11-.88l5.76-3.33a1.72,1.72,0,0,1,1.53-.06l4.87,2.82c.39.22.34.62-.11.88l-5.75,3.32A1.69,1.69,0,0,1,102.6,167.41Z" transform="translate(-2.73 -2.08)"/><path class="cls-10" d="M110.13,171.76,105.25,169c-.39-.23-.34-.62.11-.88l5.76-3.33a1.69,1.69,0,0,1,1.53-.06l4.87,2.81c.39.23.34.62-.11.89l-5.75,3.32A1.69,1.69,0,0,1,110.13,171.76Z" transform="translate(-2.73 -2.08)"/><path class="cls-10" d="M120.54,168.17l-4.87-2.81c-.39-.23-.34-.62.11-.89l4.83-2.78a1.69,1.69,0,0,1,1.53-.07l4.87,2.82c.39.22.35.62-.11.88l-4.83,2.79A1.69,1.69,0,0,1,120.54,168.17Z" transform="translate(-2.73 -2.08)"/><path class="cls-10" d="M128.07,172.52l-4.87-2.82c-.39-.22-.34-.62.11-.88l4.83-2.79a1.69,1.69,0,0,1,1.53-.06l4.87,2.81c.39.23.35.63-.11.89l-4.83,2.79A1.69,1.69,0,0,1,128.07,172.52Z" transform="translate(-2.73 -2.08)"/><path class="cls-10" d="M135.6,176.87l-4.87-2.82c-.39-.22-.34-.62.11-.88l4.83-2.79a1.69,1.69,0,0,1,1.53-.06l4.87,2.81c.39.23.35.62-.11.88l-4.83,2.79A1.73,1.73,0,0,1,135.6,176.87Z" transform="translate(-2.73 -2.08)"/><path class="cls-10" d="M143.13,181.21l-4.87-2.81c-.39-.23-.34-.62.11-.88l4.83-2.79a1.73,1.73,0,0,1,1.53-.07l4.87,2.82c.39.23.35.62-.11.88l-4.83,2.79A1.69,1.69,0,0,1,143.13,181.21Z" transform="translate(-2.73 -2.08)"/><path class="cls-10" d="M150.67,185.56l-4.88-2.81c-.39-.23-.34-.62.11-.88l4.83-2.79a1.7,1.7,0,0,1,1.53-.07l4.87,2.82c.4.22.35.62-.11.88l-4.83,2.79A1.67,1.67,0,0,1,150.67,185.56Z" transform="translate(-2.73 -2.08)"/><path class="cls-10" d="M158.2,189.91l-4.88-2.82c-.39-.22-.34-.62.11-.88l4.83-2.79a1.69,1.69,0,0,1,1.53-.06l4.87,2.82c.4.22.35.62-.11.88l-4.83,2.79A1.67,1.67,0,0,1,158.2,189.91Z" transform="translate(-2.73 -2.08)"/><path class="cls-10" d="M165.73,194.26l-4.88-2.82c-.39-.22-.34-.62.11-.88l4.83-2.79a1.69,1.69,0,0,1,1.53-.06l4.87,2.81c.4.23.35.62-.11.88l-4.83,2.79A1.67,1.67,0,0,1,165.73,194.26Z" transform="translate(-2.73 -2.08)"/><path class="cls-10" d="M173.26,198.61l-4.88-2.82c-.39-.23-.34-.62.11-.88l4.83-2.79a1.69,1.69,0,0,1,1.53-.06l4.87,2.81c.4.23.35.62-.11.88l-4.83,2.79A1.71,1.71,0,0,1,173.26,198.61Z" transform="translate(-2.73 -2.08)"/><path class="cls-10" d="M180.79,203l-4.88-2.81c-.39-.23-.34-.62.11-.88l4.83-2.79a1.73,1.73,0,0,1,1.53-.07l4.87,2.82c.4.22.35.62-.1.88l-4.84,2.79A1.67,1.67,0,0,1,180.79,203Z" transform="translate(-2.73 -2.08)"/><path class="cls-10" d="M188.32,207.3l-4.88-2.82c-.39-.22-.34-.62.11-.88l4.83-2.79a1.69,1.69,0,0,1,1.53-.06l4.88,2.82c.39.22.34.62-.11.88l-4.84,2.79A1.67,1.67,0,0,1,188.32,207.3Z" transform="translate(-2.73 -2.08)"/><path class="cls-10" d="M131.64,166.11l-4.88-2.81c-.39-.23-.34-.62.11-.88l4.83-2.79a1.73,1.73,0,0,1,1.53-.07l4.88,2.82c.39.22.34.62-.11.88l-4.83,2.79A1.69,1.69,0,0,1,131.64,166.11Z" transform="translate(-2.73 -2.08)"/><path class="cls-10" d="M124,161.7l-4.88-2.81c-.39-.23-.34-.63.11-.89l4.83-2.79a1.72,1.72,0,0,1,1.53-.06l4.88,2.82c.39.22.34.62-.11.88l-4.84,2.79A1.67,1.67,0,0,1,124,161.7Z" transform="translate(-2.73 -2.08)"/><path class="cls-10" d="M116.34,157.28l-10.5-6.06c-.39-.23-.34-.62.11-.88l4.83-2.79a1.73,1.73,0,0,1,1.53-.07l10.5,6.07c.39.22.34.62-.11.88l-4.83,2.79A1.69,1.69,0,0,1,116.34,157.28Z" transform="translate(-2.73 -2.08)"/><path class="cls-10" d="M121.69,151.91,113.17,147c-.39-.23-.34-.63.11-.89l4.83-2.79a1.72,1.72,0,0,1,1.53-.06l8.52,4.92c.39.23.34.62-.11.88l-4.83,2.79A1.73,1.73,0,0,1,121.69,151.91Z" transform="translate(-2.73 -2.08)"/><path class="cls-10" d="M139.17,170.46l-4.88-2.81c-.39-.23-.34-.63.11-.89l4.83-2.79a1.73,1.73,0,0,1,1.53-.06l4.88,2.82c.39.22.34.62-.11.88l-4.83,2.79A1.69,1.69,0,0,1,139.17,170.46Z" transform="translate(-2.73 -2.08)"/><path class="cls-10" d="M146.7,174.81,141.82,172c-.39-.22-.34-.62.11-.88l4.83-2.79a1.69,1.69,0,0,1,1.53-.06l4.88,2.81c.39.23.34.62-.11.89l-4.83,2.79A1.72,1.72,0,0,1,146.7,174.81Z" transform="translate(-2.73 -2.08)"/><path class="cls-10" d="M154.23,179.16l-4.88-2.82c-.39-.22-.34-.62.11-.88l4.84-2.79a1.67,1.67,0,0,1,1.52-.06l4.88,2.81c.39.23.34.62-.11.88l-4.83,2.79A1.73,1.73,0,0,1,154.23,179.16Z" transform="translate(-2.73 -2.08)"/><path class="cls-10" d="M161.76,183.5l-4.88-2.81c-.39-.23-.34-.62.11-.88l4.84-2.79a1.71,1.71,0,0,1,1.52-.07l4.88,2.82c.39.23.34.62-.11.88l-4.83,2.79A1.69,1.69,0,0,1,161.76,183.5Z" transform="translate(-2.73 -2.08)"/><path class="cls-10" d="M169.29,187.85,164.41,185c-.39-.23-.34-.62.11-.89l4.84-2.79a1.7,1.7,0,0,1,1.52-.06l4.88,2.82c.39.22.34.62-.11.88l-4.83,2.79A1.69,1.69,0,0,1,169.29,187.85Z" transform="translate(-2.73 -2.08)"/><path class="cls-10" d="M176.82,192.2l-4.88-2.82c-.39-.22-.34-.62.11-.88l4.84-2.79a1.67,1.67,0,0,1,1.52-.06l4.88,2.81c.39.23.34.63-.11.89l-4.83,2.79A1.69,1.69,0,0,1,176.82,192.2Z" transform="translate(-2.73 -2.08)"/><path class="cls-10" d="M184.35,196.55l-4.87-2.82c-.4-.22-.35-.62.1-.88l4.84-2.79a1.67,1.67,0,0,1,1.52-.06l4.88,2.81c.39.23.34.62-.11.88l-4.83,2.79A1.73,1.73,0,0,1,184.35,196.55Z" transform="translate(-2.73 -2.08)"/><path class="cls-10" d="M191.88,200.89,187,198.08c-.4-.23-.35-.62.11-.88l4.83-2.79a1.71,1.71,0,0,1,1.52-.07l4.88,2.82c.39.23.34.62-.11.88l-4.83,2.79A1.69,1.69,0,0,1,191.88,200.89Z" transform="translate(-2.73 -2.08)"/><path class="cls-10" d="M199.41,205.24l-4.87-2.81c-.4-.23-.35-.62.11-.89l4.83-2.78a1.67,1.67,0,0,1,1.52-.07l4.88,2.82c.39.22.34.62-.11.88l-4.83,2.79A1.69,1.69,0,0,1,199.41,205.24Z" transform="translate(-2.73 -2.08)"/><path class="cls-10" d="M212.8,213l-10.64-6.14c-.39-.23-.34-.62.11-.88l4.83-2.79a1.73,1.73,0,0,1,1.53-.07l10.64,6.15c.39.22.34.62-.11.88l-4.83,2.79A1.69,1.69,0,0,1,212.8,213Z" transform="translate(-2.73 -2.08)"/><path class="cls-10" d="M227.46,204.51l-9-5.19c-.39-.22-.34-.62.11-.88l4.83-2.79a1.69,1.69,0,0,1,1.53-.06l9,5.18c.39.23.34.62-.11.88L229,204.44A1.73,1.73,0,0,1,227.46,204.51Z" transform="translate(-2.73 -2.08)"/><path class="cls-10" d="M152.36,169.61l-4.88-2.81c-.39-.23-.34-.63.11-.89l4.83-2.79a1.69,1.69,0,0,1,1.53-.06l4.88,2.82c.39.22.34.62-.11.88l-4.84,2.79A1.67,1.67,0,0,1,152.36,169.61Z" transform="translate(-2.73 -2.08)"/><path class="cls-10" d="M144.64,165.15l-4.88-2.81c-.39-.23-.34-.62.11-.88l4.83-2.79a1.73,1.73,0,0,1,1.53-.07l4.88,2.82c.39.23.34.62-.11.88l-4.83,2.79A1.69,1.69,0,0,1,144.64,165.15Z" transform="translate(-2.73 -2.08)"/><path class="cls-10" d="M136.92,160.7l-4.87-2.82c-.4-.22-.35-.62.11-.88l4.83-2.79a1.67,1.67,0,0,1,1.52-.06l4.88,2.81c.39.23.34.63-.11.89l-4.83,2.79A1.72,1.72,0,0,1,136.92,160.7Z" transform="translate(-2.73 -2.08)"/><path class="cls-10" d="M129.2,156.24l-4.87-2.81c-.39-.23-.34-.62.11-.88l4.83-2.79a1.73,1.73,0,0,1,1.53-.07l4.87,2.82c.39.22.35.62-.11.88l-4.83,2.79A1.69,1.69,0,0,1,129.2,156.24Z" transform="translate(-2.73 -2.08)"/><path class="cls-10" d="M159.89,174,155,171.14c-.39-.22-.34-.62.11-.88l4.83-2.79a1.69,1.69,0,0,1,1.53-.06l4.88,2.81c.39.23.34.62-.11.89l-4.84,2.78A1.67,1.67,0,0,1,159.89,174Z" transform="translate(-2.73 -2.08)"/><path class="cls-10" d="M167.42,178.31l-4.88-2.82c-.39-.23-.34-.62.11-.88l4.83-2.79a1.69,1.69,0,0,1,1.53-.06l4.88,2.81c.39.23.34.62-.11.88l-4.84,2.79A1.71,1.71,0,0,1,167.42,178.31Z" transform="translate(-2.73 -2.08)"/><path class="cls-10" d="M175,182.65l-4.88-2.81c-.39-.23-.34-.62.11-.88l4.83-2.79a1.73,1.73,0,0,1,1.53-.07l4.88,2.82c.39.22.34.62-.11.88l-4.83,2.79A1.69,1.69,0,0,1,175,182.65Z" transform="translate(-2.73 -2.08)"/><path class="cls-10" d="M182.48,187l-4.88-2.81c-.39-.23-.34-.63.11-.89l4.83-2.79a1.69,1.69,0,0,1,1.53-.06l4.88,2.82c.39.22.34.62-.11.88L184,186.94A1.69,1.69,0,0,1,182.48,187Z" transform="translate(-2.73 -2.08)"/><path class="cls-10" d="M190,191.35l-4.88-2.82c-.39-.22-.34-.62.11-.88l4.83-2.79a1.69,1.69,0,0,1,1.53-.06l4.88,2.81c.39.23.34.62-.11.89l-4.83,2.79A1.73,1.73,0,0,1,190,191.35Z" transform="translate(-2.73 -2.08)"/><path class="cls-10" d="M197.54,195.7l-4.88-2.82c-.39-.23-.34-.62.11-.88l4.83-2.79a1.69,1.69,0,0,1,1.53-.06L204,192c.39.23.34.62-.11.88l-4.83,2.79A1.73,1.73,0,0,1,197.54,195.7Z" transform="translate(-2.73 -2.08)"/><path class="cls-10" d="M205.07,200l-4.88-2.81c-.39-.23-.34-.62.11-.88l4.83-2.79a1.73,1.73,0,0,1,1.53-.07l4.88,2.82c.39.23.34.62-.11.88L206.6,200A1.69,1.69,0,0,1,205.07,200Z" transform="translate(-2.73 -2.08)"/><path class="cls-10" d="M212.6,204.39l-4.88-2.81c-.39-.23-.34-.62.11-.89l4.83-2.79a1.73,1.73,0,0,1,1.53-.06l4.88,2.82c.39.22.34.62-.11.88l-4.83,2.79A1.69,1.69,0,0,1,212.6,204.39Z" transform="translate(-2.73 -2.08)"/><path class="cls-10" d="M220.13,208.74l-4.88-2.82c-.39-.22-.34-.62.11-.88l4.83-2.79a1.69,1.69,0,0,1,1.53-.06L226.6,205c.39.23.34.63-.11.89l-4.83,2.79A1.73,1.73,0,0,1,220.13,208.74Z" transform="translate(-2.73 -2.08)"/><path class="cls-10" d="M148.39,158.86,143.52,156c-.4-.22-.35-.62.11-.88l4.83-2.79a1.67,1.67,0,0,1,1.52-.06l4.88,2.81c.39.23.34.62-.11.88l-4.83,2.79A1.73,1.73,0,0,1,148.39,158.86Z" transform="translate(-2.73 -2.08)"/><path class="cls-10" d="M140.9,154.53,136,151.72c-.39-.23-.34-.63.11-.89L141,148a1.73,1.73,0,0,1,1.53-.06l4.88,2.82c.39.22.34.62-.11.88l-4.83,2.79A1.69,1.69,0,0,1,140.9,154.53Z" transform="translate(-2.73 -2.08)"/><path class="cls-10" d="M133.41,150.2l-4.88-2.81c-.39-.23-.34-.62.11-.88l4.83-2.79a1.69,1.69,0,0,1,1.53-.06l4.87,2.81c.4.23.35.62-.11.88l-4.83,2.79A1.67,1.67,0,0,1,133.41,150.2Z" transform="translate(-2.73 -2.08)"/><path class="cls-10" d="M125.91,145.88,121,143.06c-.39-.22-.35-.62.11-.88l4.83-2.79a1.69,1.69,0,0,1,1.53-.06l4.87,2.81c.39.23.34.63-.11.89l-4.83,2.79A1.69,1.69,0,0,1,125.91,145.88Z" transform="translate(-2.73 -2.08)"/><path class="cls-10" d="M133.62,141.43l-4.88-2.81c-.39-.23-.34-.63.11-.89l1.6-.92a1.69,1.69,0,0,1,1.53-.06l4.87,2.81c.39.23.34.62-.11.89l-1.59.92A1.69,1.69,0,0,1,133.62,141.43Z" transform="translate(-2.73 -2.08)"/><path class="cls-10" d="M143.4,147.08l-4.88-2.82c-.39-.23-.34-.62.11-.88l1.6-.92a1.71,1.71,0,0,1,1.52-.07l4.88,2.82c.39.22.34.62-.11.88l-1.6.92A1.71,1.71,0,0,1,143.4,147.08Z" transform="translate(-2.73 -2.08)"/><path class="cls-10" d="M150.86,151.38,146,148.57c-.39-.23-.34-.62.11-.88l1.6-.93a1.72,1.72,0,0,1,1.53-.06l4.87,2.82c.39.22.34.62-.11.88l-1.59.92A1.69,1.69,0,0,1,150.86,151.38Z" transform="translate(-2.73 -2.08)"/><path class="cls-10" d="M158.32,155.69l-4.88-2.81c-.39-.23-.34-.62.11-.89l1.6-.92a1.69,1.69,0,0,1,1.53-.06l4.87,2.81c.4.23.35.63-.11.89l-1.59.92A1.69,1.69,0,0,1,158.32,155.69Z" transform="translate(-2.73 -2.08)"/><path class="cls-10" d="M165.78,160l-4.88-2.82c-.39-.22-.34-.62.11-.88l1.6-.92a1.69,1.69,0,0,1,1.53-.06l4.88,2.81c.39.23.34.62-.11.88l-1.6.93A1.69,1.69,0,0,1,165.78,160Z" transform="translate(-2.73 -2.08)"/><path class="cls-10" d="M207.44,184.05l-4.88-2.81c-.39-.23-.34-.63.11-.89l1.6-.92a1.69,1.69,0,0,1,1.53-.06l4.87,2.81c.39.23.34.62-.11.89L209,184A1.69,1.69,0,0,1,207.44,184.05Z" transform="translate(-2.73 -2.08)"/><path class="cls-10" d="M214.9,188.36,210,185.54c-.39-.22-.34-.62.11-.88l1.6-.92a1.69,1.69,0,0,1,1.53-.06l4.87,2.81c.4.23.35.62-.11.88l-1.59.93A1.73,1.73,0,0,1,214.9,188.36Z" transform="translate(-2.73 -2.08)"/><path class="cls-10" d="M222.36,192.67l-4.88-2.82c-.39-.22-.34-.62.11-.88l1.6-.92a1.73,1.73,0,0,1,1.53-.07l4.88,2.82c.39.23.34.62-.11.88l-1.6.92A1.73,1.73,0,0,1,222.36,192.67Z" transform="translate(-2.73 -2.08)"/><path class="cls-10" d="M229.82,197,225,194.16c-.4-.23-.35-.62.11-.88l1.59-.92a1.7,1.7,0,0,1,1.53-.07l4.88,2.82c.39.22.34.62-.11.88l-1.6.92A1.69,1.69,0,0,1,229.82,197Z" transform="translate(-2.73 -2.08)"/><path class="cls-10" d="M155.92,163.2l-4.87-2.81c-.4-.23-.35-.62.11-.88l4.83-2.79a1.71,1.71,0,0,1,1.52-.07l4.88,2.82c.39.23.34.62-.11.88l-4.83,2.79A1.69,1.69,0,0,1,155.92,163.2Z" transform="translate(-2.73 -2.08)"/><path class="cls-10" d="M163.45,167.55l-4.87-2.81c-.4-.23-.35-.62.11-.88l4.83-2.79A1.67,1.67,0,0,1,165,161l4.88,2.82c.39.22.34.62-.11.88L165,167.49A1.69,1.69,0,0,1,163.45,167.55Z" transform="translate(-2.73 -2.08)"/><path class="cls-10" d="M171,171.9l-4.87-2.82c-.4-.22-.35-.62.11-.88l4.83-2.79a1.67,1.67,0,0,1,1.52-.06l4.88,2.82c.39.22.34.62-.11.88l-4.83,2.79A1.69,1.69,0,0,1,171,171.9Z" transform="translate(-2.73 -2.08)"/><path class="cls-10" d="M178.51,176.25l-4.87-2.82c-.39-.22-.35-.62.11-.88l4.83-2.79a1.69,1.69,0,0,1,1.53-.06l4.87,2.81c.39.23.34.62-.11.88L180,176.18A1.7,1.7,0,0,1,178.51,176.25Z" transform="translate(-2.73 -2.08)"/><path class="cls-10" d="M186,180.59l-4.87-2.81c-.39-.23-.35-.62.11-.88l4.83-2.79a1.69,1.69,0,0,1,1.53-.06l4.87,2.81c.39.23.34.62-.11.88l-4.83,2.79A1.69,1.69,0,0,1,186,180.59Z" transform="translate(-2.73 -2.08)"/><path class="cls-10" d="M193.57,184.94l-4.87-2.81c-.39-.23-.35-.62.11-.88l4.83-2.79a1.69,1.69,0,0,1,1.53-.07l4.87,2.82c.39.22.34.62-.11.88l-4.83,2.79A1.69,1.69,0,0,1,193.57,184.94Z" transform="translate(-2.73 -2.08)"/><path class="cls-10" d="M201.1,189.29l-4.87-2.82c-.39-.22-.35-.62.11-.88l4.83-2.79a1.69,1.69,0,0,1,1.53-.06l4.87,2.82c.39.22.34.62-.11.88l-4.83,2.79A1.69,1.69,0,0,1,201.1,189.29Z" transform="translate(-2.73 -2.08)"/><path class="cls-10" d="M208.63,193.64l-4.87-2.82c-.39-.22-.34-.62.11-.88l4.83-2.79a1.69,1.69,0,0,1,1.53-.06l4.87,2.81c.39.23.34.62-.11.88l-4.83,2.79A1.69,1.69,0,0,1,208.63,193.64Z" transform="translate(-2.73 -2.08)"/><path class="cls-10" d="M216.16,198l-4.87-2.82c-.39-.23-.34-.62.11-.88l4.83-2.79a1.69,1.69,0,0,1,1.53-.06l4.87,2.81c.39.23.35.62-.11.88l-4.83,2.79A1.73,1.73,0,0,1,216.16,198Z" transform="translate(-2.73 -2.08)"/><path class="cls-10" d="M112.87,163.74l-14.36-8.29c-.39-.23-.34-.62.11-.88l4.83-2.79a1.69,1.69,0,0,1,1.53-.06L119.34,160c.39.22.34.62-.11.88l-4.83,2.79A1.69,1.69,0,0,1,112.87,163.74Z" transform="translate(-2.73 -2.08)"/><path class="cls-10" d="M205.38,217.15,191,208.86c-.39-.22-.34-.62.11-.88l4.83-2.79a1.69,1.69,0,0,1,1.53-.06l14.36,8.29c.39.22.34.62-.11.88l-4.83,2.79A1.69,1.69,0,0,1,205.38,217.15Z" transform="translate(-2.73 -2.08)"/><path class="cls-10" d="M175.27,209.37l-4.88-2.82c-.39-.22-.34-.62.11-.88l5.76-3.32a1.67,1.67,0,0,1,1.52-.06l4.88,2.81c.39.23.34.62-.11.88l-5.76,3.33A1.67,1.67,0,0,1,175.27,209.37Z" transform="translate(-2.73 -2.08)"/><path class="cls-10" d="M120.58,177.8l-7.8-4.51c-.39-.22-.34-.62.11-.88l5.76-3.32a1.69,1.69,0,0,1,1.53-.06l7.79,4.5c.4.22.35.62-.11.88l-5.75,3.32A1.73,1.73,0,0,1,120.58,177.8Z" transform="translate(-2.73 -2.08)"/><path class="cls-10" d="M168,205.18l-7.8-4.5c-.39-.23-.34-.62.11-.88l5.76-3.33a1.69,1.69,0,0,1,1.53-.06l7.79,4.5c.4.23.35.62-.11.88l-5.75,3.33A1.69,1.69,0,0,1,168,205.18Z" transform="translate(-2.73 -2.08)"/><path class="cls-10" d="M131.45,184.07l-7.8-4.5c-.39-.23-.34-.62.11-.88l5.75-3.33a1.69,1.69,0,0,1,1.53-.06l7.8,4.5c.39.23.34.62-.11.88L133,184A1.67,1.67,0,0,1,131.45,184.07Z" transform="translate(-2.73 -2.08)"/><path class="cls-10" d="M131.09,175.33,165,194.9c.42.25.42.64,0,.88l-5.87,3.39a1.63,1.63,0,0,1-1.52,0L123.7,179.6Z" transform="translate(-2.73 -2.08)"/><path class="cls-10" d="M196.31,217.25l5.43,3.14c.33.18.28.51-.09.72l-2.35,1.36a1.38,1.38,0,0,1-1.25.05l-5.43-3.13c-.32-.19-.28-.51.09-.73l2.35-1.36A1.42,1.42,0,0,1,196.31,217.25Z" transform="translate(-2.73 -2.08)"/><path class="cls-10" d="M188.72,212.87l5.43,3.13c.32.19.28.51-.09.73l-2.35,1.36a1.42,1.42,0,0,1-1.25,0L185,215c-.32-.18-.28-.51.09-.72l2.36-1.36A1.38,1.38,0,0,1,188.72,212.87Z" transform="translate(-2.73 -2.08)"/><path class="cls-10" d="M181.19,208.52l5.43,3.14c.32.18.28.51-.09.72l-2.35,1.36a1.4,1.4,0,0,1-1.26,0l-5.43-3.14c-.32-.18-.28-.5.09-.72l2.36-1.36A1.42,1.42,0,0,1,181.19,208.52Z" transform="translate(-2.73 -2.08)"/><path class="cls-10" d="M192.88,210.47l5.43,3.13c.32.19.28.51-.09.73l-2.35,1.36a1.44,1.44,0,0,1-1.26.05l-5.43-3.14c-.32-.18-.28-.51.09-.72l2.36-1.36A1.38,1.38,0,0,1,192.88,210.47Z" transform="translate(-2.73 -2.08)"/></g><g class="cls-9"><path class="cls-10" d="M95.07,163.07l-4.88-2.82c-.39-.22-.34-.62.11-.88l5.76-3.32a1.73,1.73,0,0,1,1.53-.07l4.87,2.82c.39.22.34.62-.11.88L96.6,163A1.73,1.73,0,0,1,95.07,163.07Z" transform="translate(-2.73 -2.08)"/><path class="cls-10" d="M102.6,167.41l-4.88-2.81c-.39-.23-.34-.62.11-.88l5.76-3.33a1.72,1.72,0,0,1,1.53-.06l4.87,2.82c.39.22.34.62-.11.88l-5.75,3.32A1.69,1.69,0,0,1,102.6,167.41Z" transform="translate(-2.73 -2.08)"/><path class="cls-10" d="M110.13,171.76,105.25,169c-.39-.23-.34-.62.11-.88l5.76-3.33a1.69,1.69,0,0,1,1.53-.06l4.87,2.81c.39.23.34.62-.11.89l-5.75,3.32A1.69,1.69,0,0,1,110.13,171.76Z" transform="translate(-2.73 -2.08)"/><path class="cls-10" d="M120.54,168.17l-4.87-2.81c-.39-.23-.34-.62.11-.89l4.83-2.78a1.69,1.69,0,0,1,1.53-.07l4.87,2.82c.39.22.35.62-.11.88l-4.83,2.79A1.69,1.69,0,0,1,120.54,168.17Z" transform="translate(-2.73 -2.08)"/><path class="cls-10" d="M128.07,172.52l-4.87-2.82c-.39-.22-.34-.62.11-.88l4.83-2.79a1.69,1.69,0,0,1,1.53-.06l4.87,2.81c.39.23.35.63-.11.89l-4.83,2.79A1.69,1.69,0,0,1,128.07,172.52Z" transform="translate(-2.73 -2.08)"/><path class="cls-10" d="M135.6,176.87l-4.87-2.82c-.39-.22-.34-.62.11-.88l4.83-2.79a1.69,1.69,0,0,1,1.53-.06l4.87,2.81c.39.23.35.62-.11.88l-4.83,2.79A1.73,1.73,0,0,1,135.6,176.87Z" transform="translate(-2.73 -2.08)"/><path class="cls-10" d="M143.13,181.21l-4.87-2.81c-.39-.23-.34-.62.11-.88l4.83-2.79a1.73,1.73,0,0,1,1.53-.07l4.87,2.82c.39.23.35.62-.11.88l-4.83,2.79A1.69,1.69,0,0,1,143.13,181.21Z" transform="translate(-2.73 -2.08)"/><path class="cls-10" d="M150.67,185.56l-4.88-2.81c-.39-.23-.34-.62.11-.88l4.83-2.79a1.7,1.7,0,0,1,1.53-.07l4.87,2.82c.4.22.35.62-.11.88l-4.83,2.79A1.67,1.67,0,0,1,150.67,185.56Z" transform="translate(-2.73 -2.08)"/><path class="cls-10" d="M158.2,189.91l-4.88-2.82c-.39-.22-.34-.62.11-.88l4.83-2.79a1.69,1.69,0,0,1,1.53-.06l4.87,2.82c.4.22.35.62-.11.88l-4.83,2.79A1.67,1.67,0,0,1,158.2,189.91Z" transform="translate(-2.73 -2.08)"/><path class="cls-10" d="M165.73,194.26l-4.88-2.82c-.39-.22-.34-.62.11-.88l4.83-2.79a1.69,1.69,0,0,1,1.53-.06l4.87,2.81c.4.23.35.62-.11.88l-4.83,2.79A1.67,1.67,0,0,1,165.73,194.26Z" transform="translate(-2.73 -2.08)"/><path class="cls-10" d="M173.26,198.61l-4.88-2.82c-.39-.23-.34-.62.11-.88l4.83-2.79a1.69,1.69,0,0,1,1.53-.06l4.87,2.81c.4.23.35.62-.11.88l-4.83,2.79A1.71,1.71,0,0,1,173.26,198.61Z" transform="translate(-2.73 -2.08)"/><path class="cls-10" d="M180.79,203l-4.88-2.81c-.39-.23-.34-.62.11-.88l4.83-2.79a1.73,1.73,0,0,1,1.53-.07l4.87,2.82c.4.22.35.62-.1.88l-4.84,2.79A1.67,1.67,0,0,1,180.79,203Z" transform="translate(-2.73 -2.08)"/><path class="cls-10" d="M188.32,207.3l-4.88-2.82c-.39-.22-.34-.62.11-.88l4.83-2.79a1.69,1.69,0,0,1,1.53-.06l4.88,2.82c.39.22.34.62-.11.88l-4.84,2.79A1.67,1.67,0,0,1,188.32,207.3Z" transform="translate(-2.73 -2.08)"/><path class="cls-10" d="M131.64,166.11l-4.88-2.81c-.39-.23-.34-.62.11-.88l4.83-2.79a1.73,1.73,0,0,1,1.53-.07l4.88,2.82c.39.22.34.62-.11.88l-4.83,2.79A1.69,1.69,0,0,1,131.64,166.11Z" transform="translate(-2.73 -2.08)"/><path class="cls-10" d="M124,161.7l-4.88-2.81c-.39-.23-.34-.63.11-.89l4.83-2.79a1.72,1.72,0,0,1,1.53-.06l4.88,2.82c.39.22.34.62-.11.88l-4.84,2.79A1.67,1.67,0,0,1,124,161.7Z" transform="translate(-2.73 -2.08)"/><path class="cls-10" d="M116.34,157.28l-10.5-6.06c-.39-.23-.34-.62.11-.88l4.83-2.79a1.73,1.73,0,0,1,1.53-.07l10.5,6.07c.39.22.34.62-.11.88l-4.83,2.79A1.69,1.69,0,0,1,116.34,157.28Z" transform="translate(-2.73 -2.08)"/><path class="cls-10" d="M121.69,151.91,113.17,147c-.39-.23-.34-.63.11-.89l4.83-2.79a1.72,1.72,0,0,1,1.53-.06l8.52,4.92c.39.23.34.62-.11.88l-4.83,2.79A1.73,1.73,0,0,1,121.69,151.91Z" transform="translate(-2.73 -2.08)"/><path class="cls-10" d="M139.17,170.46l-4.88-2.81c-.39-.23-.34-.63.11-.89l4.83-2.79a1.73,1.73,0,0,1,1.53-.06l4.88,2.82c.39.22.34.62-.11.88l-4.83,2.79A1.69,1.69,0,0,1,139.17,170.46Z" transform="translate(-2.73 -2.08)"/><path class="cls-10" d="M146.7,174.81,141.82,172c-.39-.22-.34-.62.11-.88l4.83-2.79a1.69,1.69,0,0,1,1.53-.06l4.88,2.81c.39.23.34.62-.11.89l-4.83,2.79A1.72,1.72,0,0,1,146.7,174.81Z" transform="translate(-2.73 -2.08)"/><path class="cls-10" d="M154.23,179.16l-4.88-2.82c-.39-.22-.34-.62.11-.88l4.84-2.79a1.67,1.67,0,0,1,1.52-.06l4.88,2.81c.39.23.34.62-.11.88l-4.83,2.79A1.73,1.73,0,0,1,154.23,179.16Z" transform="translate(-2.73 -2.08)"/><path class="cls-10" d="M161.76,183.5l-4.88-2.81c-.39-.23-.34-.62.11-.88l4.84-2.79a1.71,1.71,0,0,1,1.52-.07l4.88,2.82c.39.23.34.62-.11.88l-4.83,2.79A1.69,1.69,0,0,1,161.76,183.5Z" transform="translate(-2.73 -2.08)"/><path class="cls-10" d="M169.29,187.85,164.41,185c-.39-.23-.34-.62.11-.89l4.84-2.79a1.7,1.7,0,0,1,1.52-.06l4.88,2.82c.39.22.34.62-.11.88l-4.83,2.79A1.69,1.69,0,0,1,169.29,187.85Z" transform="translate(-2.73 -2.08)"/><path class="cls-10" d="M176.82,192.2l-4.88-2.82c-.39-.22-.34-.62.11-.88l4.84-2.79a1.67,1.67,0,0,1,1.52-.06l4.88,2.81c.39.23.34.63-.11.89l-4.83,2.79A1.69,1.69,0,0,1,176.82,192.2Z" transform="translate(-2.73 -2.08)"/><path class="cls-10" d="M184.35,196.55l-4.87-2.82c-.4-.22-.35-.62.1-.88l4.84-2.79a1.67,1.67,0,0,1,1.52-.06l4.88,2.81c.39.23.34.62-.11.88l-4.83,2.79A1.73,1.73,0,0,1,184.35,196.55Z" transform="translate(-2.73 -2.08)"/><path class="cls-10" d="M191.88,200.89,187,198.08c-.4-.23-.35-.62.11-.88l4.83-2.79a1.71,1.71,0,0,1,1.52-.07l4.88,2.82c.39.23.34.62-.11.88l-4.83,2.79A1.69,1.69,0,0,1,191.88,200.89Z" transform="translate(-2.73 -2.08)"/><path class="cls-10" d="M199.41,205.24l-4.87-2.81c-.4-.23-.35-.62.11-.89l4.83-2.78a1.67,1.67,0,0,1,1.52-.07l4.88,2.82c.39.22.34.62-.11.88l-4.83,2.79A1.69,1.69,0,0,1,199.41,205.24Z" transform="translate(-2.73 -2.08)"/><path class="cls-10" d="M212.8,213l-10.64-6.14c-.39-.23-.34-.62.11-.88l4.83-2.79a1.73,1.73,0,0,1,1.53-.07l10.64,6.15c.39.22.34.62-.11.88l-4.83,2.79A1.69,1.69,0,0,1,212.8,213Z" transform="translate(-2.73 -2.08)"/><path class="cls-10" d="M227.46,204.51l-9-5.19c-.39-.22-.34-.62.11-.88l4.83-2.79a1.69,1.69,0,0,1,1.53-.06l9,5.18c.39.23.34.62-.11.88L229,204.44A1.73,1.73,0,0,1,227.46,204.51Z" transform="translate(-2.73 -2.08)"/><path class="cls-10" d="M152.36,169.61l-4.88-2.81c-.39-.23-.34-.63.11-.89l4.83-2.79a1.69,1.69,0,0,1,1.53-.06l4.88,2.82c.39.22.34.62-.11.88l-4.84,2.79A1.67,1.67,0,0,1,152.36,169.61Z" transform="translate(-2.73 -2.08)"/><path class="cls-10" d="M144.64,165.15l-4.88-2.81c-.39-.23-.34-.62.11-.88l4.83-2.79a1.73,1.73,0,0,1,1.53-.07l4.88,2.82c.39.23.34.62-.11.88l-4.83,2.79A1.69,1.69,0,0,1,144.64,165.15Z" transform="translate(-2.73 -2.08)"/><path class="cls-10" d="M136.92,160.7l-4.87-2.82c-.4-.22-.35-.62.11-.88l4.83-2.79a1.67,1.67,0,0,1,1.52-.06l4.88,2.81c.39.23.34.63-.11.89l-4.83,2.79A1.72,1.72,0,0,1,136.92,160.7Z" transform="translate(-2.73 -2.08)"/><path class="cls-10" d="M129.2,156.24l-4.87-2.81c-.39-.23-.34-.62.11-.88l4.83-2.79a1.73,1.73,0,0,1,1.53-.07l4.87,2.82c.39.22.35.62-.11.88l-4.83,2.79A1.69,1.69,0,0,1,129.2,156.24Z" transform="translate(-2.73 -2.08)"/><path class="cls-10" d="M159.89,174,155,171.14c-.39-.22-.34-.62.11-.88l4.83-2.79a1.69,1.69,0,0,1,1.53-.06l4.88,2.81c.39.23.34.62-.11.89l-4.84,2.78A1.67,1.67,0,0,1,159.89,174Z" transform="translate(-2.73 -2.08)"/><path class="cls-10" d="M167.42,178.31l-4.88-2.82c-.39-.23-.34-.62.11-.88l4.83-2.79a1.69,1.69,0,0,1,1.53-.06l4.88,2.81c.39.23.34.62-.11.88l-4.84,2.79A1.71,1.71,0,0,1,167.42,178.31Z" transform="translate(-2.73 -2.08)"/><path class="cls-10" d="M175,182.65l-4.88-2.81c-.39-.23-.34-.62.11-.88l4.83-2.79a1.73,1.73,0,0,1,1.53-.07l4.88,2.82c.39.22.34.62-.11.88l-4.83,2.79A1.69,1.69,0,0,1,175,182.65Z" transform="translate(-2.73 -2.08)"/><path class="cls-10" d="M182.48,187l-4.88-2.81c-.39-.23-.34-.63.11-.89l4.83-2.79a1.69,1.69,0,0,1,1.53-.06l4.88,2.82c.39.22.34.62-.11.88L184,186.94A1.69,1.69,0,0,1,182.48,187Z" transform="translate(-2.73 -2.08)"/><path class="cls-10" d="M190,191.35l-4.88-2.82c-.39-.22-.34-.62.11-.88l4.83-2.79a1.69,1.69,0,0,1,1.53-.06l4.88,2.81c.39.23.34.62-.11.89l-4.83,2.79A1.73,1.73,0,0,1,190,191.35Z" transform="translate(-2.73 -2.08)"/><path class="cls-10" d="M197.54,195.7l-4.88-2.82c-.39-.23-.34-.62.11-.88l4.83-2.79a1.69,1.69,0,0,1,1.53-.06L204,192c.39.23.34.62-.11.88l-4.83,2.79A1.73,1.73,0,0,1,197.54,195.7Z" transform="translate(-2.73 -2.08)"/><path class="cls-10" d="M205.07,200l-4.88-2.81c-.39-.23-.34-.62.11-.88l4.83-2.79a1.73,1.73,0,0,1,1.53-.07l4.88,2.82c.39.23.34.62-.11.88L206.6,200A1.69,1.69,0,0,1,205.07,200Z" transform="translate(-2.73 -2.08)"/><path class="cls-10" d="M212.6,204.39l-4.88-2.81c-.39-.23-.34-.62.11-.89l4.83-2.79a1.73,1.73,0,0,1,1.53-.06l4.88,2.82c.39.22.34.62-.11.88l-4.83,2.79A1.69,1.69,0,0,1,212.6,204.39Z" transform="translate(-2.73 -2.08)"/><path class="cls-10" d="M220.13,208.74l-4.88-2.82c-.39-.22-.34-.62.11-.88l4.83-2.79a1.69,1.69,0,0,1,1.53-.06L226.6,205c.39.23.34.63-.11.89l-4.83,2.79A1.73,1.73,0,0,1,220.13,208.74Z" transform="translate(-2.73 -2.08)"/><path class="cls-10" d="M148.39,158.86,143.52,156c-.4-.22-.35-.62.11-.88l4.83-2.79a1.67,1.67,0,0,1,1.52-.06l4.88,2.81c.39.23.34.62-.11.88l-4.83,2.79A1.73,1.73,0,0,1,148.39,158.86Z" transform="translate(-2.73 -2.08)"/><path class="cls-10" d="M140.9,154.53,136,151.72c-.39-.23-.34-.63.11-.89L141,148a1.73,1.73,0,0,1,1.53-.06l4.88,2.82c.39.22.34.62-.11.88l-4.83,2.79A1.69,1.69,0,0,1,140.9,154.53Z" transform="translate(-2.73 -2.08)"/><path class="cls-10" d="M133.41,150.2l-4.88-2.81c-.39-.23-.34-.62.11-.88l4.83-2.79a1.69,1.69,0,0,1,1.53-.06l4.87,2.81c.4.23.35.62-.11.88l-4.83,2.79A1.67,1.67,0,0,1,133.41,150.2Z" transform="translate(-2.73 -2.08)"/><path class="cls-10" d="M125.91,145.88,121,143.06c-.39-.22-.35-.62.11-.88l4.83-2.79a1.69,1.69,0,0,1,1.53-.06l4.87,2.81c.39.23.34.63-.11.89l-4.83,2.79A1.69,1.69,0,0,1,125.91,145.88Z" transform="translate(-2.73 -2.08)"/><path class="cls-10" d="M133.62,141.43l-4.88-2.81c-.39-.23-.34-.63.11-.89l1.6-.92a1.69,1.69,0,0,1,1.53-.06l4.87,2.81c.39.23.34.62-.11.89l-1.59.92A1.69,1.69,0,0,1,133.62,141.43Z" transform="translate(-2.73 -2.08)"/><path class="cls-10" d="M143.4,147.08l-4.88-2.82c-.39-.23-.34-.62.11-.88l1.6-.92a1.71,1.71,0,0,1,1.52-.07l4.88,2.82c.39.22.34.62-.11.88l-1.6.92A1.71,1.71,0,0,1,143.4,147.08Z" transform="translate(-2.73 -2.08)"/><path class="cls-10" d="M150.86,151.38,146,148.57c-.39-.23-.34-.62.11-.88l1.6-.93a1.72,1.72,0,0,1,1.53-.06l4.87,2.82c.39.22.34.62-.11.88l-1.59.92A1.69,1.69,0,0,1,150.86,151.38Z" transform="translate(-2.73 -2.08)"/><path class="cls-10" d="M158.32,155.69l-4.88-2.81c-.39-.23-.34-.62.11-.89l1.6-.92a1.69,1.69,0,0,1,1.53-.06l4.87,2.81c.4.23.35.63-.11.89l-1.59.92A1.69,1.69,0,0,1,158.32,155.69Z" transform="translate(-2.73 -2.08)"/><path class="cls-10" d="M165.78,160l-4.88-2.82c-.39-.22-.34-.62.11-.88l1.6-.92a1.69,1.69,0,0,1,1.53-.06l4.88,2.81c.39.23.34.62-.11.88l-1.6.93A1.69,1.69,0,0,1,165.78,160Z" transform="translate(-2.73 -2.08)"/><path class="cls-10" d="M207.44,184.05l-4.88-2.81c-.39-.23-.34-.63.11-.89l1.6-.92a1.69,1.69,0,0,1,1.53-.06l4.87,2.81c.39.23.34.62-.11.89L209,184A1.69,1.69,0,0,1,207.44,184.05Z" transform="translate(-2.73 -2.08)"/><path class="cls-10" d="M214.9,188.36,210,185.54c-.39-.22-.34-.62.11-.88l1.6-.92a1.69,1.69,0,0,1,1.53-.06l4.87,2.81c.4.23.35.62-.11.88l-1.59.93A1.73,1.73,0,0,1,214.9,188.36Z" transform="translate(-2.73 -2.08)"/><path class="cls-10" d="M222.36,192.67l-4.88-2.82c-.39-.22-.34-.62.11-.88l1.6-.92a1.73,1.73,0,0,1,1.53-.07l4.88,2.82c.39.23.34.62-.11.88l-1.6.92A1.73,1.73,0,0,1,222.36,192.67Z" transform="translate(-2.73 -2.08)"/><path class="cls-10" d="M229.82,197,225,194.16c-.4-.23-.35-.62.11-.88l1.59-.92a1.7,1.7,0,0,1,1.53-.07l4.88,2.82c.39.22.34.62-.11.88l-1.6.92A1.69,1.69,0,0,1,229.82,197Z" transform="translate(-2.73 -2.08)"/><path class="cls-10" d="M155.92,163.2l-4.87-2.81c-.4-.23-.35-.62.11-.88l4.83-2.79a1.71,1.71,0,0,1,1.52-.07l4.88,2.82c.39.23.34.62-.11.88l-4.83,2.79A1.69,1.69,0,0,1,155.92,163.2Z" transform="translate(-2.73 -2.08)"/><path class="cls-10" d="M163.45,167.55l-4.87-2.81c-.4-.23-.35-.62.11-.88l4.83-2.79A1.67,1.67,0,0,1,165,161l4.88,2.82c.39.22.34.62-.11.88L165,167.49A1.69,1.69,0,0,1,163.45,167.55Z" transform="translate(-2.73 -2.08)"/><path class="cls-10" d="M171,171.9l-4.87-2.82c-.4-.22-.35-.62.11-.88l4.83-2.79a1.67,1.67,0,0,1,1.52-.06l4.88,2.82c.39.22.34.62-.11.88l-4.83,2.79A1.69,1.69,0,0,1,171,171.9Z" transform="translate(-2.73 -2.08)"/><path class="cls-10" d="M178.51,176.25l-4.87-2.82c-.39-.22-.35-.62.11-.88l4.83-2.79a1.69,1.69,0,0,1,1.53-.06l4.87,2.81c.39.23.34.62-.11.88L180,176.18A1.7,1.7,0,0,1,178.51,176.25Z" transform="translate(-2.73 -2.08)"/><path class="cls-10" d="M186,180.59l-4.87-2.81c-.39-.23-.35-.62.11-.88l4.83-2.79a1.69,1.69,0,0,1,1.53-.06l4.87,2.81c.39.23.34.62-.11.88l-4.83,2.79A1.69,1.69,0,0,1,186,180.59Z" transform="translate(-2.73 -2.08)"/><path class="cls-10" d="M193.57,184.94l-4.87-2.81c-.39-.23-.35-.62.11-.88l4.83-2.79a1.69,1.69,0,0,1,1.53-.07l4.87,2.82c.39.22.34.62-.11.88l-4.83,2.79A1.69,1.69,0,0,1,193.57,184.94Z" transform="translate(-2.73 -2.08)"/><path class="cls-10" d="M201.1,189.29l-4.87-2.82c-.39-.22-.35-.62.11-.88l4.83-2.79a1.69,1.69,0,0,1,1.53-.06l4.87,2.82c.39.22.34.62-.11.88l-4.83,2.79A1.69,1.69,0,0,1,201.1,189.29Z" transform="translate(-2.73 -2.08)"/><path class="cls-10" d="M208.63,193.64l-4.87-2.82c-.39-.22-.34-.62.11-.88l4.83-2.79a1.69,1.69,0,0,1,1.53-.06l4.87,2.81c.39.23.34.62-.11.88l-4.83,2.79A1.69,1.69,0,0,1,208.63,193.64Z" transform="translate(-2.73 -2.08)"/><path class="cls-10" d="M216.16,198l-4.87-2.82c-.39-.23-.34-.62.11-.88l4.83-2.79a1.69,1.69,0,0,1,1.53-.06l4.87,2.81c.39.23.35.62-.11.88l-4.83,2.79A1.73,1.73,0,0,1,216.16,198Z" transform="translate(-2.73 -2.08)"/><path class="cls-10" d="M112.87,163.74l-14.36-8.29c-.39-.23-.34-.62.11-.88l4.83-2.79a1.69,1.69,0,0,1,1.53-.06L119.34,160c.39.22.34.62-.11.88l-4.83,2.79A1.69,1.69,0,0,1,112.87,163.74Z" transform="translate(-2.73 -2.08)"/><path class="cls-10" d="M205.38,217.15,191,208.86c-.39-.22-.34-.62.11-.88l4.83-2.79a1.69,1.69,0,0,1,1.53-.06l14.36,8.29c.39.22.34.62-.11.88l-4.83,2.79A1.69,1.69,0,0,1,205.38,217.15Z" transform="translate(-2.73 -2.08)"/><path class="cls-10" d="M175.27,209.37l-4.88-2.82c-.39-.22-.34-.62.11-.88l5.76-3.32a1.67,1.67,0,0,1,1.52-.06l4.88,2.81c.39.23.34.62-.11.88l-5.76,3.33A1.67,1.67,0,0,1,175.27,209.37Z" transform="translate(-2.73 -2.08)"/><path class="cls-10" d="M120.58,177.8l-7.8-4.51c-.39-.22-.34-.62.11-.88l5.76-3.32a1.69,1.69,0,0,1,1.53-.06l7.79,4.5c.4.22.35.62-.11.88l-5.75,3.32A1.73,1.73,0,0,1,120.58,177.8Z" transform="translate(-2.73 -2.08)"/><path class="cls-10" d="M168,205.18l-7.8-4.5c-.39-.23-.34-.62.11-.88l5.76-3.33a1.69,1.69,0,0,1,1.53-.06l7.79,4.5c.4.23.35.62-.11.88l-5.75,3.33A1.69,1.69,0,0,1,168,205.18Z" transform="translate(-2.73 -2.08)"/><path class="cls-10" d="M131.45,184.07l-7.8-4.5c-.39-.23-.34-.62.11-.88l5.75-3.33a1.69,1.69,0,0,1,1.53-.06l7.8,4.5c.39.23.34.62-.11.88L133,184A1.67,1.67,0,0,1,131.45,184.07Z" transform="translate(-2.73 -2.08)"/><path class="cls-10" d="M131.09,175.33,165,194.9c.42.25.42.64,0,.88l-5.87,3.39a1.63,1.63,0,0,1-1.52,0L123.7,179.6Z" transform="translate(-2.73 -2.08)"/><path class="cls-10" d="M196.31,217.25l5.43,3.14c.33.18.28.51-.09.72l-2.35,1.36a1.38,1.38,0,0,1-1.25.05l-5.43-3.13c-.32-.19-.28-.51.09-.73l2.35-1.36A1.42,1.42,0,0,1,196.31,217.25Z" transform="translate(-2.73 -2.08)"/><path class="cls-10" d="M188.72,212.87l5.43,3.13c.32.19.28.51-.09.73l-2.35,1.36a1.42,1.42,0,0,1-1.25,0L185,215c-.32-.18-.28-.51.09-.72l2.36-1.36A1.38,1.38,0,0,1,188.72,212.87Z" transform="translate(-2.73 -2.08)"/><path class="cls-10" d="M181.19,208.52l5.43,3.14c.32.18.28.51-.09.72l-2.35,1.36a1.4,1.4,0,0,1-1.26,0l-5.43-3.14c-.32-.18-.28-.5.09-.72l2.36-1.36A1.42,1.42,0,0,1,181.19,208.52Z" transform="translate(-2.73 -2.08)"/><path class="cls-10" d="M192.88,210.47l5.43,3.13c.32.19.28.51-.09.73l-2.35,1.36a1.44,1.44,0,0,1-1.26.05l-5.43-3.14c-.32-.18-.28-.51.09-.72l2.36-1.36A1.38,1.38,0,0,1,192.88,210.47Z" transform="translate(-2.73 -2.08)"/></g><path class="cls-11" d="M272.57,201.67,128.71,118.61a6.37,6.37,0,0,1-2.64-7.1L158.61,5.87c.8-2.62,3.29-3.68,5.55-2.37L308,86.55a6.37,6.37,0,0,1,2.63,7.11L278.13,199.29C277.32,201.91,274.84,203,272.57,201.67Z" transform="translate(-2.73 -2.08)"/><path class="cls-12" d="M271.22,198,131.68,117.34a6.07,6.07,0,0,1-2.52-6.8l31.1-101c.77-2.51,3.15-3.53,5.32-2.28L305.11,87.91a6.1,6.1,0,0,1,2.53,6.8l-31.11,101C275.76,198.2,273.38,199.22,271.22,198Z" transform="translate(-2.73 -2.08)"/><path class="cls-13" d="M271.22,198,131.68,117.34a6.07,6.07,0,0,1-2.52-6.8l31.1-101c.77-2.51,3.15-3.53,5.32-2.28L305.11,87.91a6.1,6.1,0,0,1,2.53,6.8l-31.11,101C275.76,198.2,273.38,199.22,271.22,198Z" transform="translate(-2.73 -2.08)"/><path class="cls-13" d="M271.22,198,131.68,117.34a6.07,6.07,0,0,1-2.52-6.8l31.1-101c.77-2.51,3.15-3.53,5.32-2.28L305.11,87.91a6.1,6.1,0,0,1,2.53,6.8l-31.11,101C275.76,198.2,273.38,199.22,271.22,198Z" transform="translate(-2.73 -2.08)"/><path class="cls-14" d="M263.72,167.11l-94.46-54.53a4.19,4.19,0,0,1-1.73-4.67l21.36-69.36A2.42,2.42,0,0,1,192.54,37L287,91.53a4.17,4.17,0,0,1,1.73,4.66l-21.36,69.36A2.42,2.42,0,0,1,263.72,167.11Z" transform="translate(-2.73 -2.08)"/><path class="cls-15" d="M251,168.79,156.5,114.25a4.18,4.18,0,0,1-1.73-4.67l21.36-69.35a2.43,2.43,0,0,1,3.65-1.57L274.24,93.2A4.19,4.19,0,0,1,276,97.87l-21.36,69.36A2.43,2.43,0,0,1,251,168.79Z" transform="translate(-2.73 -2.08)"/><g class="cls-16"><path class="cls-10" d="M251,168.79,156.5,114.25a4.18,4.18,0,0,1-1.73-4.67l21.36-69.35a2.43,2.43,0,0,1,3.65-1.57L274.24,93.2A4.19,4.19,0,0,1,276,97.87l-21.36,69.36A2.43,2.43,0,0,1,251,168.79Z" transform="translate(-2.73 -2.08)"/></g><path class="cls-8" d="M274.24,93.2,179.78,38.66a2.37,2.37,0,0,0-2.66.09,2.58,2.58,0,0,1,1.36.35l94.46,54.54a4.18,4.18,0,0,1,1.73,4.67l-21.36,69.36a2.88,2.88,0,0,1-1,1.47,2.51,2.51,0,0,0,2.29-1.91L276,97.87A4.19,4.19,0,0,0,274.24,93.2Z" transform="translate(-2.73 -2.08)"/><path class="cls-13" d="M131.82,225.42a7.21,7.21,0,0,1-3.5-.81L90.48,202.76a2.73,2.73,0,0,1-1.56-2.34A3.58,3.58,0,0,1,91,197.53l19.48-11.25a8.71,8.71,0,0,1,8-.3l37.84,21.85a2.74,2.74,0,0,1,1.56,2.33,3.59,3.59,0,0,1-2.09,2.89L136.28,224.3A9.17,9.17,0,0,1,131.82,225.42ZM115,186.26a8.08,8.08,0,0,0-3.92,1L91.56,198.48c-1,.56-1.55,1.27-1.55,1.94a1.73,1.73,0,0,0,1,1.39l37.85,21.85a7.75,7.75,0,0,0,6.86-.31l19.48-11.25c1-.56,1.54-1.27,1.54-1.94a1.73,1.73,0,0,0-1-1.39L117.9,186.92A6.05,6.05,0,0,0,115,186.26Z" transform="translate(-2.73 -2.08)"/><path class="cls-8" d="M202.78,75.05l-5.84-3.37a1.53,1.53,0,0,1-.65-1.68h0a.88.88,0,0,1,1.32-.55l5.84,3.38a1.53,1.53,0,0,1,.65,1.68h0A.87.87,0,0,1,202.78,75.05Z" transform="translate(-2.73 -2.08)"/><path class="cls-8" d="M216.69,83.08l-8.61-5a1.53,1.53,0,0,1-.65-1.68h0a.87.87,0,0,1,1.32-.54l8.61,5a1.53,1.53,0,0,1,.65,1.68h0A.87.87,0,0,1,216.69,83.08Z" transform="translate(-2.73 -2.08)"/><path class="cls-8" d="M191,101.05l-5.84-3.37a1.5,1.5,0,0,1-.65-1.68h0a.87.87,0,0,1,1.31-.55l5.84,3.38a1.52,1.52,0,0,1,.65,1.67h0A.86.86,0,0,1,191,101.05Z" transform="translate(-2.73 -2.08)"/><path class="cls-8" d="M203.41,108.21l-8.62-5a1.51,1.51,0,0,1-.64-1.68h0a.86.86,0,0,1,1.31-.55l8.61,5a1.54,1.54,0,0,1,.65,1.68h0A.86.86,0,0,1,203.41,108.21Z" transform="translate(-2.73 -2.08)"/><path class="cls-8" d="M185.29,70.42l-3.65-2.11a1.53,1.53,0,0,1-.65-1.68h0a.87.87,0,0,1,1.32-.54l3.64,2.1a1.51,1.51,0,0,1,.65,1.68h0A.86.86,0,0,1,185.29,70.42Z" transform="translate(-2.73 -2.08)"/><path class="cls-8" d="M196.27,82.22l-11.15-6.43a1.54,1.54,0,0,1-.65-1.68h0a.86.86,0,0,1,1.31-.55L196.93,80a1.53,1.53,0,0,1,.65,1.68h0A.86.86,0,0,1,196.27,82.22Z" transform="translate(-2.73 -2.08)"/><path class="cls-8" d="M186,87.22l-3.65-2.11a1.53,1.53,0,0,1-.65-1.68h0a.86.86,0,0,1,1.31-.54l3.65,2.1a1.54,1.54,0,0,1,.65,1.68h0A.86.86,0,0,1,186,87.22Z" transform="translate(-2.73 -2.08)"/><path class="cls-8" d="M204.75,119.92,195,114.29a1.5,1.5,0,0,1-.65-1.68h0a.86.86,0,0,1,1.31-.54l9.74,5.62a1.51,1.51,0,0,1,.65,1.68h0A.86.86,0,0,1,204.75,119.92Z" transform="translate(-2.73 -2.08)"/><path class="cls-8" d="M181.9,95.79l-2.34-1.35a1.5,1.5,0,0,1-.65-1.68h0a.87.87,0,0,1,1.31-.55l2.34,1.36a1.53,1.53,0,0,1,.65,1.68h0A.86.86,0,0,1,181.9,95.79Z" transform="translate(-2.73 -2.08)"/><path class="cls-8" d="M179.68,105.45l-2.91-1.68a1.54,1.54,0,0,1-.65-1.68h0a.87.87,0,0,1,1.32-.55l2.91,1.68a1.51,1.51,0,0,1,.64,1.68h0A.87.87,0,0,1,179.68,105.45Z" transform="translate(-2.73 -2.08)"/><path class="cls-8" d="M191,112l-7.66-4.43a1.53,1.53,0,0,1-.65-1.68h0a.86.86,0,0,1,1.31-.54l7.67,4.42a1.53,1.53,0,0,1,.65,1.68h0A.87.87,0,0,1,191,112Z" transform="translate(-2.73 -2.08)"/><path class="cls-8" d="M180.89,111.61l-5.51-3.18a1.53,1.53,0,0,1-.65-1.68h0a.88.88,0,0,1,1.32-.55l5.51,3.19a1.53,1.53,0,0,1,.65,1.68h0A.87.87,0,0,1,180.89,111.61Z" transform="translate(-2.73 -2.08)"/><path class="cls-8" d="M213.11,124.77l-3.54-2a1.54,1.54,0,0,1-.65-1.68h0a.86.86,0,0,1,1.31-.55l3.54,2a1.51,1.51,0,0,1,.65,1.68h0A.86.86,0,0,1,213.11,124.77Z" transform="translate(-2.73 -2.08)"/><path class="cls-8" d="M199.56,95.05l-9.75-5.62a1.53,1.53,0,0,1-.65-1.68h0a.88.88,0,0,1,1.32-.55l9.74,5.63a1.53,1.53,0,0,1,.65,1.68h0A.86.86,0,0,1,199.56,95.05Z" transform="translate(-2.73 -2.08)"/><path class="cls-17" d="M200.71,90.26l-17-9.81a1.53,1.53,0,0,1-.65-1.68h0a.87.87,0,0,1,1.31-.55l17,9.81a1.51,1.51,0,0,1,.64,1.68h0A.87.87,0,0,1,200.71,90.26Z" transform="translate(-2.73 -2.08)"/><path class="cls-17" d="M190.69,95.4,181,89.78a1.52,1.52,0,0,1-.65-1.68h0a.86.86,0,0,1,1.31-.55l9.74,5.63a1.5,1.5,0,0,1,.65,1.68h0A.86.86,0,0,1,190.69,95.4Z" transform="translate(-2.73 -2.08)"/><path class="cls-17" d="M207,99.32l-3.54-2a1.51,1.51,0,0,1-.65-1.68h0a.86.86,0,0,1,1.31-.55l3.54,2a1.53,1.53,0,0,1,.65,1.68h0A.86.86,0,0,1,207,99.32Z" transform="translate(-2.73 -2.08)"/><path class="cls-17" d="M243,98.25,222,86.14a1.53,1.53,0,0,1-.65-1.68h0a.87.87,0,0,1,1.32-.54l21,12.1a1.53,1.53,0,0,1,.65,1.68h0A.87.87,0,0,1,243,98.25Z" transform="translate(-2.73 -2.08)"/><path class="cls-18" d="M189.88,105.87,178.16,99.1a1.51,1.51,0,0,1-.64-1.68h0a.86.86,0,0,1,1.31-.54l11.71,6.76a1.53,1.53,0,0,1,.65,1.68h0A.87.87,0,0,1,189.88,105.87Z" transform="translate(-2.73 -2.08)"/><path class="cls-18" d="M191.64,68.62l-8.61-5a1.53,1.53,0,0,1-.65-1.68h0a.87.87,0,0,1,1.32-.55l8.61,5a1.54,1.54,0,0,1,.65,1.68h0A.87.87,0,0,1,191.64,68.62Z" transform="translate(-2.73 -2.08)"/><path class="cls-17" d="M179.09,116l-10-5.76a1.53,1.53,0,0,1-.65-1.68h0a.86.86,0,0,1,1.31-.54l10,5.75a1.54,1.54,0,0,1,.65,1.68h0A.87.87,0,0,1,179.09,116Z" transform="translate(-2.73 -2.08)"/><path class="cls-8" d="M243,85.55l-4.27-2.46a1.13,1.13,0,0,1-.47-1.23h0a.63.63,0,0,1,1-.4l4.27,2.47a1.11,1.11,0,0,1,.47,1.22h0A.63.63,0,0,1,243,85.55Z" transform="translate(-2.73 -2.08)"/><path class="cls-8" d="M251.19,90.25l-4.27-2.46a1.12,1.12,0,0,1-.48-1.23h0a.63.63,0,0,1,1-.4l4.27,2.47a1.1,1.1,0,0,1,.47,1.23h0A.62.62,0,0,1,251.19,90.25Z" transform="translate(-2.73 -2.08)"/><path class="cls-8" d="M259.33,95l-4.27-2.47a1.12,1.12,0,0,1-.48-1.23h0a.64.64,0,0,1,1-.4l4.27,2.47a1.12,1.12,0,0,1,.48,1.23h0A.64.64,0,0,1,259.33,95Z" transform="translate(-2.73 -2.08)"/><path class="cls-18" d="M263.33,97.27l-.13-.08a1.1,1.1,0,0,1-.47-1.23h0a.63.63,0,0,1,1-.39l.12.07a1.12,1.12,0,0,1,.48,1.23h0A.63.63,0,0,1,263.33,97.27Z" transform="translate(-2.73 -2.08)"/></svg>